# xmcd CD database file
#
# Track frame offsets:
#	150
#	27260
#	42645
#	55337
#	73390
#	86120
#	111717
#	123430
#	149072
#	166640
#	192482
#	210227
#	248752
#	278567
#
# Disc length: 3853 seconds
#
# Revision: 2
# Processed by: cddbd v1.5.2PL0 Copyright (c) Steve Scherf et al.
# Submitted via: CDex 1.51
#
DISCID=da0f0b0e
DTITLE=Jethro Tull - Bursting Out
DYEAR=1978
DGENRE=Rhythmic Soul
TTITLE0=no lulaby
TTITLE1=skating away on the thin ice of a new day
TTITLE2=jack in the green
TTITLE3=one brown mouse
TTITLE4=a new day yesterday
TTITLE5=flute solo improvisation
TTITLE6=songs from the wood
TTITLE7=hunting girl
TTITLE8=too old to rock'n'roll to young to die
TTITLE9=minstrel in the gallery
TTITLE10=cross-eyed mary
TTITLE11=aquqlung
TTITLE12=locomotive breath
TTITLE13=the dambaster march - medley
EXTD=YEAR: 1978
EXTT0=
EXTT1=
EXTT2=
EXTT3=
EXTT4=
EXTT5=
EXTT6=
EXTT7=
EXTT8=
EXTT9=
EXTT10=
EXTT11=
EXTT12=
EXTT13=
PLAYORDER=
